<svg>
    <symbol id="pizza" width="130%" height="130%" viewBox="0 -5 45 52" fill="none" xmlns="http://www.w3.org/2000/svg">
        <g clip-path="url(#clip0_502_13)">
        <path fill-rule="evenodd" clip-rule="evenodd" d="M22.6806 1.50536C28.6297 6.60993 32.0668 13.2826 32.0668 21.8963C32.0668 23.0246 31.1665 23.9449 30.0626 23.9449H28.7265C27.6227 23.9449 26.7223 23.0246 26.7223 21.8963C26.7223 17.5764 25.6841 13.9502 23.7542 10.8595C23.5557 10.5416 23.6469 10.1194 23.9579 9.91649C24.2689 9.71357 24.6819 9.80678 24.8805 10.1247C26.9589 13.4532 28.0585 17.3387 28.0585 21.8963C28.0585 22.2703 28.3606 22.5792 28.7265 22.5792H30.0626C30.4285 22.5792 30.7307 22.2703 30.7307 21.8963C30.7307 13.7133 27.4891 7.41247 21.8169 2.54746L21.8116 2.54291L21.8064 2.53825C21.5693 2.32613 21.2133 2.31067 20.8825 2.60654L20.8733 2.61475L19.8088 3.49892C19.56 3.73522 19.5397 4.20298 19.8817 4.51618C20.893 5.41225 21.8464 6.31668 22.7359 7.2959C22.987 7.57227 22.9713 8.00435 22.7009 8.26098C22.4306 8.51761 22.0079 8.50161 21.7568 8.22524C20.9104 7.29354 19.9945 6.42346 19.003 5.54507L18.9966 5.53946C18.1428 4.76369 17.9851 3.32844 18.9299 2.46998L18.9409 2.45992L20.0127 1.56982C20.7491 0.918664 21.8532 0.77051 22.6806 1.50536Z" fill="#40484E"/>
        <path fill-rule="evenodd" clip-rule="evenodd" d="M18.0376 9.26292C18.0376 8.88028 17.8944 8.48779 17.658 8.19774L18.6844 7.32339C19.116 7.8528 19.3737 8.55293 19.3737 9.26292C19.3737 10.9375 18.0057 12.3359 16.3674 12.3359C15.6728 12.3359 14.9879 12.0725 14.47 11.6313L15.3254 10.5821C15.6091 10.8238 15.9931 10.9701 16.3674 10.9701C17.2678 10.9701 18.0376 10.1833 18.0376 9.26292Z" fill="#40484E"/>
        <path fill-rule="evenodd" clip-rule="evenodd" d="M20.643 11.653V10.2872H21.9791V11.653H20.643Z" fill="#40484E"/>
        <path fill-rule="evenodd" clip-rule="evenodd" d="M23.3152 20.5305V19.1647H24.6513V20.5305H23.3152Z" fill="#40484E"/>
        <path fill-rule="evenodd" clip-rule="evenodd" d="M7.94989 19.8476V18.4819H9.28601V19.8476H7.94989Z" fill="#40484E"/>
        <path fill-rule="evenodd" clip-rule="evenodd" d="M13.6284 15.7503C12.706 15.7503 11.9582 16.5147 11.9582 17.4575C11.9582 18.4004 12.706 19.1647 13.6284 19.1647C14.5508 19.1647 15.2985 18.4004 15.2985 17.4575C15.2985 16.5147 14.5508 15.7503 13.6284 15.7503ZM10.6221 17.4575C10.6221 15.7604 11.9681 14.3846 13.6284 14.3846C15.2887 14.3846 16.6347 15.7604 16.6347 17.4575C16.6347 19.1547 15.2887 20.5305 13.6284 20.5305C11.9681 20.5305 10.6221 19.1547 10.6221 17.4575Z" fill="#40484E"/>
        <path fill-rule="evenodd" clip-rule="evenodd" d="M20.977 14.3845C20.0546 14.3845 19.3069 15.1489 19.3069 16.0918C19.3069 17.0346 20.0546 17.799 20.977 17.799C21.8994 17.799 22.6472 17.0346 22.6472 16.0918C22.6472 15.1489 21.8994 14.3845 20.977 14.3845ZM17.9708 16.0918C17.9708 14.3946 19.3167 13.0188 20.977 13.0188C22.6373 13.0188 23.9833 14.3946 23.9833 16.0918C23.9833 17.7889 22.6373 19.1647 20.977 19.1647C19.3167 19.1647 17.9708 17.7889 17.9708 16.0918Z" fill="#40484E"/>
        <path fill-rule="evenodd" clip-rule="evenodd" d="M0.49221 20.8388L18.6573 3.97717L19.5556 4.98827L1.41404 21.828H6.61377C7.71759 21.828 8.61794 22.7483 8.61794 23.8767V24.2181C8.61794 24.797 9.05371 25.2424 9.62003 25.2424C10.1864 25.2424 10.6221 24.797 10.6221 24.2181V23.9449C10.6221 22.9507 11.3011 22.0444 12.2949 21.8413L12.3095 21.8383L12.3243 21.8359C13.6358 21.6297 14.6305 22.6793 14.6305 23.8767V27.6325C14.6305 28.2114 15.0662 28.6569 15.6326 28.6569C16.1989 28.6569 16.6346 28.2114 16.6346 27.6325V23.8767C16.6346 22.7483 17.535 21.828 18.6388 21.828H27.524V23.1938H18.6388C18.2729 23.1938 17.9708 23.5026 17.9708 23.8767V27.6325C17.9708 28.9657 16.9368 30.0226 15.6326 30.0226C14.3283 30.0226 13.2944 28.9657 13.2944 27.6325V23.8767C13.2944 23.4402 12.9609 23.1264 12.5424 23.1836C12.2073 23.2596 11.9582 23.5786 11.9582 23.9449V24.2181C11.9582 25.5513 10.9243 26.6082 9.62003 26.6082C8.31579 26.6082 7.28183 25.5513 7.28183 24.2181V23.8767C7.28183 23.5026 6.97967 23.1938 6.61377 23.1938H1.2693C0.650776 23.1938 0.202325 22.7841 0.0590958 22.2717C-0.0784065 21.7797 0.0661917 21.2176 0.49221 20.8388Z" fill="#40484E"/>
        </g>
        <defs>
        <clipPath id="clip0_502_13">
        <rect width="32" height="32" fill="white"/>
        </clipPath>
        </defs>
    </symbol>

    <symbol id="sushi" width="130%" height="130%" viewBox="0 -5 45 52" fill="none" xmlns="http://www.w3.org/2000/svg">
        <path fill-rule="evenodd" clip-rule="evenodd" d="M3.49864 8.17333C5.20826 7.54347 7.20375 7.17392 8.34783 7.17392C9.49191 7.17392 11.4874 7.54347 13.197 8.17333C14.0543 8.48919 14.8878 8.88756 15.5204 9.37132C16.1341 9.8406 16.6957 10.4988 16.6957 11.3478H15.3043C15.3043 11.1534 15.1703 10.8551 14.6753 10.4765C14.1992 10.1125 13.5109 9.7717 12.716 9.47885C11.1213 8.89132 9.2907 8.56522 8.34783 8.56522C7.40495 8.56522 5.57435 8.89132 3.97962 9.47885C3.18476 9.7717 2.49648 10.1125 2.0204 10.4765C1.54211 10.8423 1.40078 11.1332 1.39177 11.3278C1.39821 11.3431 1.41863 11.3849 1.47641 11.4552C1.57818 11.5791 1.74913 11.7336 1.999 11.9099C2.49629 12.261 3.20667 12.6297 4.00908 12.9676C4.80632 13.3032 5.66734 13.5971 6.45098 13.8061C7.24702 14.0184 7.91697 14.1304 8.34783 14.1304H9.18261V15.5217H8.34783C7.7352 15.5217 6.92689 15.3729 6.0925 15.1504C5.24571 14.9246 4.32412 14.6098 3.46918 14.2498C2.61941 13.892 1.80805 13.4782 1.19666 13.0466C0.892175 12.8317 0.612042 12.5948 0.40131 12.3383C0.197647 12.0904 0 11.752 0 11.3478C0 10.4988 0.561578 9.8406 1.17525 9.37132C1.80787 8.88756 2.64132 8.48919 3.49864 8.17333Z" fill="#505050"/>
        <path fill-rule="evenodd" clip-rule="evenodd" d="M18.803 8.17333C20.5126 7.54347 22.5081 7.17392 23.6522 7.17392C24.7963 7.17392 26.7917 7.54347 28.5014 8.17333C29.3587 8.48919 30.1921 8.88756 30.8248 9.37132C31.4384 9.8406 32 10.4988 32 11.3478C32 11.752 31.8024 12.0904 31.5987 12.3383C31.388 12.5948 31.1078 12.8317 30.8033 13.0466C30.1919 13.4782 29.3806 13.892 28.5308 14.2498C27.6759 14.6098 26.7543 14.9246 25.9075 15.1504C25.0731 15.3729 24.2648 15.5217 23.6522 15.5217H22.9565V14.1304H23.6522C24.083 14.1304 24.753 14.0184 25.549 13.8061C26.3327 13.5971 27.1937 13.3032 27.9909 12.9676C28.7933 12.6297 29.5037 12.261 30.001 11.9099C30.2509 11.7336 30.4218 11.5791 30.5236 11.4552C30.5814 11.3849 30.6018 11.3431 30.6082 11.3278C30.5992 11.1332 30.4579 10.8423 29.9796 10.4765C29.5035 10.1125 28.8152 9.7717 28.0204 9.47885C26.4257 8.89132 24.5951 8.56522 23.6522 8.56522C22.7093 8.56522 20.8787 8.89132 19.284 9.47885C18.4891 9.7717 17.8008 10.1125 17.3248 10.4765C16.8297 10.8551 16.6957 11.1534 16.6957 11.3478V12.7391H15.3044V11.3478C15.3044 10.4988 15.8659 9.8406 16.4796 9.37132C17.1122 8.88756 17.9457 8.48919 18.803 8.17333Z" fill="#505050"/>
        <path fill-rule="evenodd" clip-rule="evenodd" d="M11.1508 13.0429C12.8604 12.413 14.8559 12.0435 16 12.0435C17.1441 12.0435 19.1396 12.413 20.8492 13.0429C21.7065 13.3587 22.5399 13.7571 23.1726 14.2409C23.7862 14.7102 24.3478 15.3683 24.3478 16.2174H22.9565C22.9565 16.023 22.8224 15.7246 22.3274 15.3461C21.8513 14.982 21.1631 14.6412 20.3682 14.3484C18.7735 13.7609 16.9429 13.4348 16 13.4348C15.0571 13.4348 13.2265 13.7609 11.6318 14.3484C10.8369 14.6412 10.1486 14.982 9.67256 15.3461C9.17754 15.7246 9.04347 16.023 9.04347 16.2174H7.65216C7.65216 15.3683 8.21374 14.7102 8.82741 14.2409C9.46003 13.7571 10.2935 13.3587 11.1508 13.0429Z" fill="#505050"/>
        <path fill-rule="evenodd" clip-rule="evenodd" d="M9.67256 6.3026C9.17754 6.68114 9.04347 6.97951 9.04347 7.17391V7.86957H7.65216V7.17391C7.65216 6.32484 8.21374 5.66668 8.82741 5.1974C9.46003 4.71364 10.2935 4.31527 11.1508 3.99941C12.8604 3.36955 14.8559 3 16 3C17.1441 3 19.1396 3.36955 20.8492 3.99941C21.7065 4.31527 22.5399 4.71364 23.1726 5.1974C23.7862 5.66668 24.3478 6.32484 24.3478 7.17391V7.86957H22.9565V7.17391C22.9565 6.97951 22.8224 6.68114 22.3274 6.3026C21.8513 5.93854 21.1631 5.59778 20.3682 5.30493C18.7735 4.7174 16.9429 4.3913 16 4.3913C15.0571 4.3913 13.2265 4.7174 11.6318 5.30493C10.8369 5.59778 10.1486 5.93854 9.67256 6.3026Z" fill="#505050"/>
        <path fill-rule="evenodd" clip-rule="evenodd" d="M7.71338 11.1487C7.65805 11.1432 7.52946 11.1435 7.26762 11.2744C6.92398 11.4462 6.50612 11.3069 6.33431 10.9633C6.16249 10.6196 6.30177 10.2018 6.64541 10.03C7.07922 9.81306 7.47237 9.72638 7.85182 9.76432C8.19858 9.799 8.47163 9.936 8.6375 10.0192C8.64486 10.0229 8.652 10.0265 8.65893 10.03C8.84352 10.1223 8.9096 10.1484 8.98226 10.1556C9.03759 10.1612 9.16618 10.1609 9.42802 10.03C9.77166 9.85814 10.1895 9.99743 10.3613 10.3411C10.5332 10.6847 10.3939 11.1026 10.0502 11.2744C9.61642 11.4913 9.22327 11.578 8.84382 11.54C8.49706 11.5053 8.22401 11.3683 8.05814 11.2851C8.05079 11.2814 8.04364 11.2778 8.03672 11.2744C7.85212 11.1821 7.78604 11.156 7.71338 11.1487Z" fill="#505050"/>
        <path fill-rule="evenodd" clip-rule="evenodd" d="M15.3656 16.0183C15.3102 16.0128 15.1817 16.013 14.9198 16.144C14.5762 16.3158 14.1583 16.1765 13.9865 15.8328C13.8147 15.4892 13.954 15.0713 14.2976 14.8995C14.7314 14.6826 15.1246 14.5959 15.504 14.6339C15.8508 14.6686 16.1238 14.8056 16.2897 14.8888C16.297 14.8925 16.3042 14.8961 16.3111 14.8995C16.4957 14.9918 16.5618 15.0179 16.6344 15.0252C16.6898 15.0307 16.8184 15.0305 17.0802 14.8995C17.4238 14.7277 17.8417 14.867 18.0135 15.2106C18.1853 15.5543 18.0461 15.9721 17.7024 16.144C17.2686 16.3609 16.8755 16.4475 16.496 16.4096C16.1493 16.3749 15.8762 16.2379 15.7103 16.1547C15.703 16.151 15.6958 16.1474 15.6889 16.144C15.5043 16.0517 15.4382 16.0256 15.3656 16.0183Z" fill="#505050"/>
        <path fill-rule="evenodd" clip-rule="evenodd" d="M15.3656 6.97482C15.3102 6.96928 15.1817 6.96956 14.9198 7.10048C14.5762 7.2723 14.1583 7.13301 13.9865 6.78937C13.8147 6.44574 13.954 6.02788 14.2976 5.85606C14.7314 5.63915 15.1246 5.55247 15.504 5.59042C15.8508 5.62509 16.1238 5.7621 16.2897 5.84532C16.297 5.84901 16.3042 5.85259 16.3111 5.85606C16.4957 5.94835 16.5618 5.97446 16.6344 5.98172C16.6898 5.98725 16.8184 5.98698 17.0802 5.85606C17.4238 5.68424 17.8417 5.82353 18.0135 6.16716C18.1853 6.5108 18.0461 6.92866 17.7024 7.10048C17.2686 7.31739 16.8755 7.40407 16.496 7.36612C16.1493 7.33145 15.8762 7.19444 15.7103 7.11122C15.703 7.10753 15.6958 7.10394 15.6889 7.10048C15.5043 7.00818 15.4382 6.98208 15.3656 6.97482Z" fill="#505050"/>
        <path fill-rule="evenodd" clip-rule="evenodd" d="M23.0177 11.1487C22.9624 11.1432 22.8338 11.1435 22.572 11.2744C22.2283 11.4462 21.8105 11.3069 21.6387 10.9633C21.4668 10.6196 21.6061 10.2018 21.9498 10.03C22.3836 9.81306 22.7767 9.72638 23.1562 9.76432C23.5029 9.799 23.776 9.936 23.9419 10.0192C23.9492 10.0229 23.9563 10.0265 23.9633 10.03C24.1479 10.1223 24.214 10.1484 24.2866 10.1556C24.3419 10.1612 24.4705 10.1609 24.7324 10.03C25.076 9.85814 25.4939 9.99743 25.6657 10.3411C25.8375 10.6847 25.6982 11.1026 25.3546 11.2744C24.9208 11.4913 24.5276 11.578 24.1482 11.54C23.8014 11.5053 23.5284 11.3683 23.3625 11.2851C23.3551 11.2814 23.348 11.2778 23.3411 11.2744C23.1565 11.1821 23.0904 11.156 23.0177 11.1487Z" fill="#505050"/>
        <path fill-rule="evenodd" clip-rule="evenodd" d="M1.3913 20.3701V11.3478H0V20.3913C0 20.7954 0.197647 21.1338 0.40131 21.3818C0.612042 21.6383 0.892175 21.8751 1.19666 22.0901C1.80805 22.5216 2.61941 22.9355 3.46918 23.2933C4.32412 23.6533 5.24571 23.9681 6.0925 24.1939C6.92689 24.4164 7.7352 24.5652 8.34783 24.5652V23.1739C7.91697 23.1739 7.24702 23.0618 6.45098 22.8496C5.66734 22.6406 4.80632 22.3467 4.00908 22.011C3.20667 21.6732 2.49629 21.3044 1.999 20.9534C1.74913 20.777 1.57818 20.6225 1.47641 20.4987C1.41715 20.4265 1.39719 20.3844 1.3913 20.3701Z" fill="#505050"/>
        <path fill-rule="evenodd" clip-rule="evenodd" d="M32 11.3478V20.3913C32 20.7954 31.8023 21.1338 31.5987 21.3818C31.3879 21.6383 31.1078 21.8751 30.8033 22.0901C30.1919 22.5216 29.3806 22.9355 28.5308 23.2933C27.6759 23.6533 26.7543 23.9681 25.9075 24.1939C25.0731 24.4164 24.2648 24.5652 23.6522 24.5652V23.1739C24.083 23.1739 24.753 23.0618 25.549 22.8496C26.3327 22.6406 27.1937 22.3467 27.9909 22.011C28.7933 21.6732 29.5037 21.3044 30.001 20.9534C30.2509 20.777 30.4218 20.6225 30.5236 20.4987C30.5828 20.4265 30.6028 20.3844 30.6087 20.3701V11.3478H32Z" fill="#505050"/>
        <path fill-rule="evenodd" clip-rule="evenodd" d="M7.65216 25.2609V16.2174H9.04347V25.2397C9.04935 25.254 9.06931 25.2961 9.12857 25.3682C9.23034 25.4921 9.40129 25.6466 9.65116 25.823C10.1485 26.174 10.8588 26.5427 11.6612 26.8806C12.4585 27.2163 13.3195 27.5102 14.1031 27.7191C14.8992 27.9314 15.5691 28.0435 16 28.0435C16.4308 28.0435 17.1008 27.9314 17.8968 27.7191C18.6805 27.5102 19.5415 27.2163 20.3387 26.8806C21.1411 26.5427 21.8515 26.174 22.3488 25.823C22.5987 25.6466 22.7696 25.4921 22.8714 25.3682C22.9307 25.2961 22.9506 25.254 22.9565 25.2397V16.2174H24.3478V25.2609C24.3478 25.665 24.1502 26.0034 23.9465 26.2513C23.7358 26.5079 23.4556 26.7447 23.1512 26.9596C22.5398 27.3912 21.7284 27.8051 20.8786 28.1629C20.0237 28.5229 19.1021 28.8377 18.2553 29.0635C17.4209 29.286 16.6126 29.4348 16 29.4348C15.3874 29.4348 14.5791 29.286 13.7447 29.0635C12.8979 28.8377 11.9763 28.5229 11.1213 28.1629C10.2716 27.8051 9.46022 27.3912 8.84882 26.9596C8.54434 26.7447 8.2642 26.5079 8.05347 26.2513C7.84981 26.0034 7.65216 25.665 7.65216 25.2609Z" fill="#505050"/>
        <path fill-rule="evenodd" clip-rule="evenodd" d="M8.05347 17.2079C7.84981 16.9599 7.65216 16.6215 7.65216 16.2174H9.04347C9.04347 16.1997 9.04113 16.1907 9.04128 16.1906C9.04161 16.1906 9.05383 16.2338 9.12857 16.3247C9.23034 16.4486 9.40129 16.6031 9.65116 16.7795C10.1485 17.1305 10.8588 17.4993 11.6612 17.8371C12.4585 18.1728 13.3195 18.4667 14.1031 18.6757C14.8992 18.8879 15.5691 19 16 19C16.4308 19 17.1008 18.8879 17.8968 18.6757C18.6805 18.4667 19.5415 18.1728 20.3387 17.8371C21.1411 17.4993 21.8515 17.1305 22.3488 16.7795C22.5987 16.6031 22.7696 16.4486 22.8714 16.3247C22.9461 16.2338 22.9584 16.1906 22.9587 16.1906C22.9588 16.1907 22.9565 16.1997 22.9565 16.2174H24.3478C24.3478 16.6215 24.1502 16.9599 23.9465 17.2079C23.7358 17.4644 23.4556 17.7012 23.1512 17.9161C22.5398 18.3477 21.7284 18.7616 20.8786 19.1194C20.0237 19.4794 19.1021 19.7942 18.2553 20.02C17.4209 20.2425 16.6126 20.3913 16 20.3913C15.3874 20.3913 14.5791 20.2425 13.7447 20.02C12.8979 19.7942 11.9763 19.4794 11.1213 19.1194C10.2716 18.7616 9.46022 18.3477 8.84882 17.9161C8.54434 17.7012 8.2642 17.4644 8.05347 17.2079Z" fill="#505050"/>
    </symbol>

    <symbol id="burgers" width="130%" height="130%" viewBox="0 -5 45 52" fill="none" xmlns="http://www.w3.org/2000/svg">
        <path fill-rule="evenodd" clip-rule="evenodd" d="M5.41745 3.76792C8.06439 2.04537 11.6715 1 15.6041 1C19.5368 1 23.1439 2.04537 25.7908 3.76792C28.4225 5.48053 30.2167 7.94951 30.2167 10.8113C30.2167 11.918 29.6923 12.8957 28.8998 13.7051C28.1081 14.5135 27.0006 15.2081 25.6913 15.7762C23.0685 16.914 19.4979 17.6037 15.6041 17.6037C11.7104 17.6037 8.13976 16.914 5.51703 15.7762C4.20764 15.2081 3.10015 14.5135 2.30853 13.7051C1.51598 12.8957 0.991577 11.918 0.991577 10.8113C0.991577 7.94951 2.78578 5.48053 5.41745 3.76792ZM6.13346 5.06225C3.72031 6.63265 2.38325 8.69196 2.38325 10.8113C2.38325 11.3649 2.64167 11.9721 3.26253 12.6061C3.88432 13.2411 4.82086 13.8484 6.03388 14.3747C8.45596 15.4255 11.8437 16.0943 15.6041 16.0943C19.3646 16.0943 22.7523 15.4255 25.1744 14.3747C26.3874 13.8484 27.324 13.2411 27.9458 12.6061C28.5666 11.9721 28.825 11.3649 28.825 10.8113C28.825 8.69196 27.488 6.63265 25.0748 5.06225C22.677 3.50178 19.3257 2.50943 15.6041 2.50943C11.8826 2.50943 8.53133 3.50178 6.13346 5.06225Z" fill="#505050"/>
        <path fill-rule="evenodd" clip-rule="evenodd" d="M30.0987 23.0451C30.1385 23.4565 30.1471 23.8983 30.1471 24.3207C30.1471 25.1112 29.8736 25.9111 29.3171 26.5147C29.3116 26.5207 29.306 26.5265 29.3004 26.5322C28.0983 27.7519 26.1412 28.7174 23.781 29.3814C21.4024 30.0506 18.5421 30.4339 15.465 30.4339C12.5977 30.4339 9.89833 30.0886 7.60409 29.4883C5.32367 28.8916 3.39326 28.0299 2.10218 26.96C1.34393 26.3415 1.00891 25.362 0.926238 24.555C0.923403 24.5273 0.921982 24.4995 0.921982 24.4716C0.921982 23.6187 1.02179 22.6586 1.41111 21.9856C1.62063 21.6234 1.93726 21.3063 2.3855 21.1825C2.8217 21.062 3.27482 21.1548 3.71179 21.368C6.24307 22.596 11.2193 23.6415 15.465 23.6415H16.3C16.6843 23.6415 16.9958 23.9794 16.9958 24.3962C16.9958 24.813 16.6843 25.1509 16.3 25.1509H15.465C11.0827 25.1509 5.90012 24.0834 3.14284 22.7455L3.14145 22.7448C2.88282 22.6186 2.76214 22.6361 2.7289 22.6452C2.70744 22.6512 2.65876 22.6689 2.58995 22.7879C2.42563 23.0719 2.31761 23.6431 2.31376 24.4281C2.37652 24.9642 2.59525 25.4743 2.93991 25.7547L2.94511 25.7589C4.01987 26.6503 5.74158 27.4482 7.93046 28.021C10.107 28.5905 12.6959 28.9245 15.465 28.9245C18.4416 28.9245 21.1828 28.553 23.4315 27.9203C25.6915 27.2845 27.384 26.4045 28.3406 25.439C28.6141 25.1379 28.7554 24.734 28.7554 24.3207C28.7554 23.9129 28.7467 23.534 28.7146 23.2024C28.6818 22.8628 28.6289 22.6237 28.5656 22.4726C28.5358 22.4015 28.5111 22.3683 28.5 22.3558C28.4979 22.3536 28.4964 22.352 28.4953 22.351L28.4941 22.3507C28.4919 22.3502 28.488 22.3495 28.4822 22.349C28.4707 22.3479 28.4508 22.3475 28.4209 22.3513C28.3599 22.3591 28.2646 22.3838 28.1287 22.4466C27.4614 22.7673 25.2815 23.6049 24.4525 23.9046C24.088 24.0364 23.6939 23.8227 23.5724 23.4273C23.4508 23.0319 23.6479 22.6045 24.0125 22.4726C24.8515 22.1693 26.9774 21.3498 27.5682 21.065L27.5767 21.0609C28.0223 20.8538 28.4928 20.7588 28.9374 20.9196C29.3993 21.0866 29.6742 21.4703 29.8325 21.848C29.9866 22.2158 30.0598 22.6418 30.0987 23.0451Z" fill="#505050"/>
        <path fill-rule="evenodd" clip-rule="evenodd" d="M8.64578 9.30185V7.79242H10.0375V9.30185H8.64578Z" fill="#505050"/>
        <path fill-rule="evenodd" clip-rule="evenodd" d="M10.7333 12.3207V10.8113H12.1249V12.3207H10.7333Z" fill="#505050"/>
        <path fill-rule="evenodd" clip-rule="evenodd" d="M12.125 9.30185V7.79242H13.5166V9.30185H12.125Z" fill="#505050"/>
        <path fill-rule="evenodd" clip-rule="evenodd" d="M30.1076 15.4607C30.4303 15.6871 30.5226 16.1544 30.3138 16.5043C29.8477 17.2857 29.1002 17.9437 28.2075 18.5027C27.308 19.0659 26.2153 19.5569 25.0034 19.9822L24.9938 19.9855C24.6416 20.103 24.2251 20.3488 23.8711 20.6936C23.5169 21.0386 23.2645 21.4433 23.168 21.8623C23.1664 21.8691 23.1647 21.8759 23.163 21.8827C23.1332 21.9981 23.103 22.1162 23.0724 22.2363C22.8605 23.0664 22.6245 23.9909 22.322 24.7446C22.1474 25.1797 21.932 25.6079 21.6527 25.9485C21.3719 26.291 20.9963 26.5793 20.5125 26.6515C19.9794 26.7519 19.5319 26.53 19.1991 26.2194C18.8799 25.9214 18.6278 25.5109 18.4232 25.1125C18.2144 24.7058 18.0245 24.2496 17.8508 23.8221C17.8218 23.7508 17.7933 23.6804 17.7653 23.611C17.62 23.252 17.4852 22.919 17.3476 22.6205C17.3415 22.6073 17.3358 22.5939 17.3304 22.5803C17.191 22.2274 16.9232 21.9234 16.5856 21.7037C16.2445 21.4818 15.8798 21.3773 15.6041 21.3773C12.281 21.3773 9.20641 20.9369 6.7079 20.1695C4.23814 19.411 2.22502 18.3007 1.14886 16.8741C0.905503 16.5515 0.949342 16.076 1.24677 15.8121C1.54421 15.5482 1.9826 15.5957 2.22595 15.9183C3.02854 16.9822 4.70336 17.9851 7.08706 18.7172C9.44201 19.4404 12.3864 19.8679 15.6041 19.8679C16.1635 19.8679 16.7729 20.0654 17.3016 20.4094C17.8284 20.7522 18.3214 21.2713 18.601 21.9643C18.7527 22.295 18.9012 22.6621 19.0434 23.0136C19.0706 23.0809 19.0975 23.1475 19.1242 23.2133C19.2984 23.6418 19.4652 24.0395 19.639 24.378C19.8172 24.7249 19.9739 24.9512 20.1069 25.0753C20.2165 25.1776 20.2588 25.168 20.2749 25.1643C20.2757 25.1641 20.2765 25.164 20.2772 25.1638C20.2911 25.161 20.3051 25.1586 20.3191 25.1567C20.3819 25.1482 20.478 25.1097 20.6128 24.9453C20.7532 24.7741 20.8988 24.5089 21.046 24.1421C21.3061 23.4939 21.5132 22.6849 21.7293 21.8404C21.7594 21.7226 21.7897 21.6041 21.8204 21.4853C22.0037 20.7015 22.4454 20.0535 22.9413 19.5705C23.4381 19.0866 24.0286 18.7293 24.5795 18.5445C25.7315 18.14 26.7248 17.6881 27.5116 17.1954C28.3063 16.6978 28.8461 16.186 29.1454 15.6843C29.3542 15.3344 29.785 15.2343 30.1076 15.4607Z" fill="#505050"/>
    </symbol>

    <symbol id="wok" width="130%" height="130%" viewBox="0 -5 45 52"  xmlns="http://www.w3.org/2000/svg">
        <g clip-path="url(#clip0_502_71)">
        <path fill-rule="evenodd" clip-rule="evenodd" d="M5.48785 12.5733C5.68161 12.3408 6.00767 12.268 6.28192 12.396L16.2819 17.0626C16.5166 17.1722 16.6667 17.4077 16.6667 17.6668V18.3334C16.6667 18.4894 16.612 18.6404 16.5121 18.7602L13.1788 22.7602C12.9851 22.9927 12.659 23.0655 12.3847 22.9376L2.38474 18.2709C2.15003 18.1613 2 17.9258 2 17.6668V17.0001C2 16.8441 2.05468 16.6931 2.15452 16.5733L5.48785 12.5733ZM6.18341 13.8214L3.33333 17.2415V17.2422L12.4833 21.5122L15.3333 18.0921V18.0913L6.18341 13.8214Z" fill="#505050"/>
        <path fill-rule="evenodd" clip-rule="evenodd" d="M25.7181 12.396C25.9227 12.3005 26.1618 12.3151 26.3533 12.4348L31.6867 15.7681C31.8816 15.8899 32 16.1036 32 16.3334V17.0001C32 17.2591 31.85 17.4947 31.6153 17.6042L21.6153 22.2709C21.4106 22.3664 21.1715 22.3518 20.98 22.2321L15.6467 18.8988C15.4517 18.7769 15.3333 18.5633 15.3333 18.3334V17.6668C15.3333 17.4077 15.4834 17.1722 15.7181 17.0626L25.7181 12.396ZM16.7834 18.0369L21.3796 20.9095L30.55 16.63L25.9538 13.7574L16.7834 18.0369Z" fill="#505050"/>
        <path fill-rule="evenodd" clip-rule="evenodd" d="M9.73739 6.38734C9.86579 6.33231 10.0082 6.319 10.1446 6.34931L16.1446 7.68264C16.4233 7.74458 16.6317 7.97711 16.6627 8.26093C16.6938 8.54474 16.5406 8.81682 16.2819 8.93756L6.28192 13.6042C6.14332 13.6689 5.98669 13.684 5.83831 13.6469L0.504976 12.3135C0.208198 12.2393 0 11.9727 0 11.6668V11.0001C0 10.7334 0.158931 10.4924 0.404054 10.3873L9.73739 6.38734ZM10.0651 7.6975L1.76578 11.2544L5.93232 12.296L13.9407 8.55875L10.0651 7.6975Z" fill="#505050"/>
        <path fill-rule="evenodd" clip-rule="evenodd" d="M25.7167 13.6036L22.4501 12.0702L23.0166 10.8633L26.2833 12.3966L25.7167 13.6036Z" fill="#505050"/>
        <path fill-rule="evenodd" clip-rule="evenodd" d="M17.0598 9.54137L15.7264 8.94137L16.2736 7.72548L17.6069 8.32548L17.0598 9.54137Z" fill="#505050"/>
        <path fill-rule="evenodd" clip-rule="evenodd" d="M15.3333 31.0001V18.3334H16.6667V31.0001H15.3333Z" fill="#505050"/>
        <path fill-rule="evenodd" clip-rule="evenodd" d="M21.2007 1.6977C21.5518 1.80858 21.7466 2.18308 21.6357 2.53418L17.6357 15.2008C17.5248 15.5519 17.1503 15.7467 16.7992 15.6358C16.4481 15.5249 16.2534 15.1504 16.3643 14.7993L20.3643 2.13267C20.4751 1.78157 20.8496 1.58683 21.2007 1.6977Z" fill="#505050"/>
        <path fill-rule="evenodd" clip-rule="evenodd" d="M28.7098 0.116556C29.0137 0.324467 29.0915 0.739347 28.8835 1.04322L20.2169 13.7099C20.009 14.0138 19.5941 14.0915 19.2902 13.8836C18.9864 13.6757 18.9086 13.2608 19.1165 12.957L27.7831 0.290305C27.991 -0.013565 28.4059 -0.091355 28.7098 0.116556Z" fill="#505050"/>
        <path fill-rule="evenodd" clip-rule="evenodd" d="M7.96217 25.9149L7.33016 19.4684L6.00319 19.5985L6.66986 26.3985C6.69152 26.6195 6.82178 26.8151 7.01727 26.9204L15.6839 31.5871C15.8813 31.6933 16.1188 31.6933 16.3161 31.5871L24.9827 26.9204C25.1774 26.8156 25.3075 26.6211 25.3299 26.4011L25.9966 19.8678L24.6701 19.7324L24.0393 25.9141L16 30.2429L7.96217 25.9149Z" fill="#505050"/>
        </g>
        <defs>
        <clipPath id="clip0_502_71">
        <rect width="32" height="32" fill="white"/>
        </clipPath>
        </defs>
    </symbol>

    <symbol id="barbeque" width="130%" height="130%" viewBox="0 -5 45 52" fill="none" xmlns="http://www.w3.org/2000/svg">
        <g id="Group">
        <path id="Vector (Stroke)" fill-rule="evenodd" clip-rule="evenodd" d="M0.223157 0.223157C0.520699 -0.0743856 1.00311 -0.0743856 1.30065 0.223157L5.87208 4.79459C6.16962 5.09213 6.16962 5.57454 5.87208 5.87208C5.57454 6.16962 5.09213 6.16962 4.79459 5.87208L0.223157 1.30065C-0.0743856 1.00311 -0.0743856 0.520699 0.223157 0.223157Z" fill="#505050"/>
        <path id="Vector (Stroke)_2" fill-rule="evenodd" clip-rule="evenodd" d="M23.619 19.0476C21.0684 19.0476 19.0476 21.0684 19.0476 23.619C19.0476 26.1697 21.0684 28.1905 23.619 28.1905C24.0853 28.1905 24.5354 28.1232 24.9019 28.001C25.3011 27.8679 25.7326 28.0837 25.8657 28.4829C25.9987 28.8821 25.783 29.3135 25.3838 29.4466C24.8361 29.6292 24.2195 29.7143 23.619 29.7143C20.2268 29.7143 17.5238 27.0113 17.5238 23.619C17.5238 20.2268 20.2268 17.5238 23.619 17.5238C27.0113 17.5238 29.7143 20.2268 29.7143 23.619C29.7143 24.2195 29.6292 24.8361 29.4466 25.3838C29.3136 25.783 28.8821 25.9987 28.4829 25.8657C28.0837 25.7326 27.8679 25.3011 28.001 24.9019C28.1232 24.5354 28.1905 24.0853 28.1905 23.619C28.1905 21.0684 26.1697 19.0476 23.619 19.0476Z" fill="#505050"/>
        <path id="Vector (Stroke)_3" fill-rule="evenodd" clip-rule="evenodd" d="M19.0476 14.4762C16.497 14.4762 14.4762 16.497 14.4762 19.0476C14.4762 20.6742 15.3932 22.1836 16.6968 22.9657C17.0576 23.1822 17.1746 23.6502 16.9581 24.011C16.7416 24.3719 16.2736 24.4889 15.9128 24.2724C14.1687 23.2259 12.9524 21.2306 12.9524 19.0476C12.9524 15.6554 15.6554 12.9524 19.0476 12.9524C21.1425 12.9524 22.9716 14.0033 24.0955 15.646C24.3331 15.9932 24.2442 16.4674 23.8969 16.705C23.5496 16.9426 23.0755 16.8537 22.8379 16.5064C21.9808 15.2538 20.6099 14.4762 19.0476 14.4762Z" fill="#505050"/>
        <path id="Vector (Stroke)_4" fill-rule="evenodd" clip-rule="evenodd" d="M13.7143 9.14286C11.1636 9.14286 9.14286 11.1636 9.14286 13.7143C9.14286 15.548 10.1867 17.107 11.746 17.8217C12.1285 17.997 12.2965 18.4492 12.1212 18.8317C11.9459 19.2143 11.4936 19.3822 11.1111 19.2069C9.01327 18.2454 7.61905 16.1472 7.61905 13.7143C7.61905 10.3221 10.3221 7.61905 13.7143 7.61905C16.1472 7.61905 18.2454 9.01327 19.2069 11.1111C19.3822 11.4936 19.2143 11.9459 18.8317 12.1212C18.4492 12.2965 17.997 12.1285 17.8217 11.746C17.107 10.1867 15.548 9.14286 13.7143 9.14286Z" fill="#505050"/>
        <path id="Vector (Stroke)_5" fill-rule="evenodd" clip-rule="evenodd" d="M9.14286 4.57143C6.59222 4.57143 4.57143 6.59222 4.57143 9.14286C4.57143 10.6268 5.34813 12.0063 6.54133 12.8681C6.88245 13.1144 6.95927 13.5907 6.7129 13.9318C6.46653 14.2729 5.99027 14.3497 5.64915 14.1034C4.09948 12.9842 3.04762 11.1637 3.04762 9.14286C3.04762 5.75064 5.75064 3.04762 9.14286 3.04762C11.234 3.04762 13.0567 4.09441 14.1796 5.64915C14.4259 5.99028 14.3491 6.46653 14.008 6.7129C13.6669 6.95927 13.1906 6.88245 12.9442 6.54133C12.0862 5.35322 10.7088 4.57143 9.14286 4.57143Z" fill="#505050"/>
        </g>
    </symbol>
</svg>
